<svg width="17" height="16" viewBox="0 0 17 16" fill="none" xmlns="http://www.w3.org/2000/svg">
<path d="M14 7V4" stroke="black" stroke-linecap="round" stroke-linejoin="round"/>
<path d="M15.5 5.5H12.5" stroke="black" stroke-linecap="round" stroke-linejoin="round"/>
<path d="M11 1.5V3.5" stroke="black" stroke-linecap="round" stroke-linejoin="round"/>
<path d="M12 2.5H10" stroke="black" stroke-linecap="round" stroke-linejoin="round"/>
<path d="M14.0436 9.53755C13.062 9.81283 12.0247 9.82185 11.0384 9.56369C10.0521 9.30553 9.15229 8.78949 8.43137 8.06857C7.71045 7.34765 7.19442 6.44783 6.93626 5.46152C6.6781 4.47522 6.68712 3.43797 6.96239 2.4563C5.99456 2.72568 5.11419 3.24394 4.40898 3.95944C3.70377 4.67495 3.19833 5.56274 2.94301 6.53438C2.68769 7.50602 2.69139 8.52759 2.95375 9.49736C3.21611 10.4671 3.72797 11.3512 4.43835 12.0616C5.14872 12.772 6.03282 13.2838 7.00259 13.5462C7.97235 13.8086 8.99393 13.8123 9.96556 13.5569C10.9372 13.3016 11.825 12.7962 12.5405 12.091C13.256 11.3858 13.7743 10.5054 14.0436 9.53755Z" stroke="black" stroke-linecap="round" stroke-linejoin="round"/>
</svg>
